<svg id="Layer_1" data-name="Layer 1" xmlns="http://www.w3.org/2000/svg" viewBox="0 0 400 300" width="0" height="0" class="illustration styles_illustrationTablet__1DWOa"><title>61_doctor_two-color</title><path d="M96,64.25s-42.63,6-45.7,53.86l29.45,7Z" fill="#68e1fd"></path><path d="M96,64.25s-42.63,6-45.7,53.86l29.45,7Z" fill="#fff" opacity="0.46"></path><rect x="179.76" y="23.53" width="74.47" height="92.82" fill="#e6e6e6"></rect><rect x="248.72" y="143.5" width="36.83" height="5.71" fill="#ffd200"></rect><rect x="251.9" y="137.8" width="36.83" height="5.71" fill="#ffd200"></rect><rect x="251.9" y="137.8" width="36.83" height="5.71" opacity="0.08"></rect><ellipse cx="215.95" cy="261.22" rx="153.06" ry="18.51" fill="#e6e6e6" opacity="0.45"></ellipse><rect x="105.19" y="149.21" width="221.15" height="110.27" fill="#c9c9c9"></rect><rect x="105.19" y="149.21" width="221.15" height="14.5" fill="#e6e6e6"></rect><path d="M215.34,151.38s6,30-17,40.67-24.75,38.88-7.42,67.44H112.51l4.79-84.44,46-25.84,40,.5Z" opacity="0.08"></path><path d="M52.81,118.73s-13.08,48.61,16.58,48.7l9.75-25-4.89-18.58Z" fill="#f4a28c"></path><path d="M52.81,118.73s-13.08,48.61,16.58,48.7l9.75-25-4.89-18.58Z" fill="#ce8172" opacity="0.31"></path><path d="M106.85,255.14s-1.55,4.36-5.48,4.7-5,4.2-1.41,5.19,12.64-3.59,12.64-3.59l-.27-5.67Z" fill="#24285b"></path><path d="M164.46,254.47s1.55,4.36,5.48,4.71,4.95,4.19,1.41,5.18-12.65-3.58-12.65-3.58l.28-5.68Z" fill="#24285b"></path><path d="M281,135.45s-10.92-2.93-13.33-13.07c0,0,16.87-3.48,17.43,14Z" fill="#68e1fd" opacity="0.58"></path><path d="M282.29,134.36s-7.67-12-1-23.29c0,0,12.87,8.1,7.23,23.29Z" fill="#68e1fd" opacity="0.73"></path><path d="M284.25,134.36s4-12.73,16.12-15.19c0,0,2.31,8.25-7.81,15.19Z" fill="#68e1fd"></path><polygon points="276.34 134.11 278.62 149.21 292.53 149.21 294.52 134.11 276.34 134.11" fill="#24285b"></polygon><path d="M135.47,38.43,133,36h0c-.42-2.6-.93-4.56-.93-4.56-.9-4.41-7.83-6.55-11.44-2.91A6.61,6.61,0,0,0,118.9,36l3.24,6c1.45,3.7,4.8,4.76,7.32,5a3.7,3.7,0,0,0,4-3.38,20.67,20.67,0,0,0,0-2.62l1.54-.57A1.18,1.18,0,0,0,135.47,38.43Z" fill="#f4a28c"></path><polygon points="119.31 38.68 117.3 62.75 130.64 62.91 126.84 45.77 119.31 38.68" fill="#f4a28c"></polygon><path d="M114.71,31.89c2.49,1.26,2.84,4.34,3.49,7l.79,3.31a5,5,0,0,0,5.63-3,5.92,5.92,0,0,0,.33-4,2.13,2.13,0,0,1,1.87-2.72l1.1-.11a9.52,9.52,0,0,0,4-1.45h0l-.39-5.2" fill="#24285b"></path><path d="M125.36,38.94s-.52-2.79-2.59-2.22-1.33,4.6,1.59,4.5Z" fill="#f4a28c"></path><path d="M127,46.26a9,9,0,0,1-4.32-2.14s-.93,5.21,5.41,7Z" fill="#ce8172" opacity="0.31"></path><path d="M98,63.78s34.56-10.38,69.78,4.27-18.29,108.82-18.29,108.82H95.53S45.51,74.38,98,63.78Z" fill="#68e1fd"></path><circle cx="199.47" cy="40.16" r="4.7" fill="#c9c9c9"></circle><path d="M208.61,50.79c-.61-3.42-8.75-3.16-9.18-3.15s-8.56-.27-9.17,3.15c-.51,2.85-2.41,14.31-3.11,18.55a1.71,1.71,0,0,0,1.3,2h0a1.72,1.72,0,0,0,2.06-1.3l3.37-15.07.63,16.75-.58,24.74a2,2,0,0,0,1.76,2h0a2,2,0,0,0,2.24-1.86l1.06-17a.44.44,0,0,1,.88,0l1.07,17a2,2,0,0,0,2.24,1.86h0a2,2,0,0,0,1.76-2l-.58-24.74L205,54.92,208.35,70a1.72,1.72,0,0,0,2.06,1.3h0a1.72,1.72,0,0,0,1.31-2C211,65.1,209.11,53.64,208.61,50.79Z" fill="#c9c9c9"></path><path d="M129.94,38.68h6.24l-2.64,8.85-10.77-6v-.79l3.34,1.77A1.28,1.28,0,0,0,128,41.35h0a3.35,3.35,0,0,0-1.9-2.87l-1-.5-.84-1.06,2.11,1A8.76,8.76,0,0,0,129.94,38.68Z" fill="#68e1fd"></path><path d="M104.4,87.3h12.81l6.11,37.32H106.74s-6.92,30.73,17,52.25H95.53S80.77,141,78,128.21L76.7,100.5Z" opacity="0.08"></path><path d="M117.48,60.57l6.49,12,6.08-12.3A30.07,30.07,0,0,0,117.48,60.57Z" fill="#f4a28c"></path><polygon points="70.46 77.82 102.07 77.82 106.74 114.46 75.58 114.46 70.46 77.82" fill="#ffd200"></polygon><path d="M80.51,98.7a9.64,9.64,0,0,1,7.57,7C90,112.07,106,108.39,106,108.39l.77,6.07-28.63-.09Z" opacity="0.08"></path><polygon points="79.42 75.05 80.82 80.58 92.39 80.58 91.33 75.05 79.42 75.05" fill="#24285b"></polygon><path d="M73.23,110.3S68.4,101,75.46,97.65s8.59,9.22,2.65,16.72Z" fill="#24285b"></path><path d="M118.2,38.94s4.33-5.51,14-6.86c0,0,3.76-5.44-1.08-9.27s-16.34.06-19,5.33C110.63,31.1,109.62,39,118.2,38.94Z" fill="#68e1fd"></path><path d="M73.3,108.42s-25.89,53-7.85,58.83,13.83-53.83,13.83-53.83Z" fill="#f4a28c"></path><path d="M150.57,79.33c4.82-10,18-12.45,26.48-5.25,11.9,10.16,33.82,38.36,37.82,65.31,6.34,42.67-54.33,46.67-54.33,46.67l-2-9.33s39.8-10,28.4-38C177.82,116.33,142.4,96.27,150.57,79.33Z" fill="#f4a28c"></path><path d="M179.76,75s34.62,9.16,41.75,41.36H203.63Z" opacity="0.08"></path><path d="M150.37,76.06s10.5-12.83,23.84-5.17S205,106.73,205,106.73L175.54,128S132.71,91.39,150.37,76.06Z" fill="#68e1fd"></path><path d="M150.37,76.06s10.5-12.83,23.84-5.17S205,106.73,205,106.73L175.54,128S132.71,91.39,150.37,76.06Z" fill="#fff" opacity="0.46"></path><polygon points="149.46 176.87 95.53 176.87 104.54 256.39 114.71 256.39 123.67 191.97 157.21 256.39 167.21 256.39 149.46 176.87" fill="#68e1fd"></polygon><polygon points="149.46 176.87 95.53 176.87 104.54 256.39 114.71 256.39 123.67 191.97 157.21 256.39 167.21 256.39 149.46 176.87" opacity="0.08"></polygon><rect x="218.76" y="34.06" width="26.75" height="21.62" fill="#c9c9c9"></rect><rect x="218.76" y="63.44" width="26.75" height="4.4" fill="#fff"></rect><rect x="218.76" y="72.05" width="26.75" height="4.4" fill="#fff" opacity="0.5"></rect><rect x="218.76" y="81.68" width="26.75" height="4.4" fill="#fff" opacity="0.5"></rect><circle cx="242.98" cy="103.96" r="5.74" fill="#24285b"></circle><path d="M158.54,176.73s-17.67,3.94-12.44,10.94,14.44-1.61,14.44-1.61Z" fill="#24285b"></path><path d="M110.63,77.9c-.09-.59-2-14.51,7-18.62l0,1.28c-8.26,3.79-6,17-6,17.18Z" fill="#24285b"></path><path d="M135.36,90l-1-.21c5.22-25.41-4.42-29.52-4.52-29.56V59.13C130.3,59.29,140.76,63.74,135.36,90Z" fill="#24285b"></path><path d="M141.1,104.49l-1.95-.48c0-.07,1.66-7-.83-10.44a4.47,4.47,0,0,0-3.52-1.82A4.68,4.68,0,0,0,131,93c-3.14,3-2.85,10.22-2.85,10.29l-2,.09c0-.33-.33-8.13,3.45-11.81A6.7,6.7,0,0,1,135,89.75a6.47,6.47,0,0,1,5,2.64C143,96.56,141.17,104.16,141.1,104.49Z" fill="#24285b"></path><circle cx="135.12" cy="90.63" r="1.88" fill="#ffd200"></circle><circle cx="111.31" cy="78.44" r="3.62" fill="#ffd200"></circle><circle cx="111.31" cy="78.44" r="2.06" opacity="0.08"></circle><path d="M130.19,113.36c-4.25-2.12-3.62-11.82-3.59-12.23l1,.07c0,.1-.62,9.44,3,11.27Z" fill="#24285b"></path><circle cx="130.77" cy="112.68" r="1.68" fill="#ffd200"></circle><path d="M135.68,113.19l-.32-.94c3.88-1.29,4.61-10.63,4.62-10.73l1,.08C140.94,102,140.19,111.7,135.68,113.19Z" fill="#24285b"></path><circle cx="135.21" cy="112.44" r="1.68" fill="#ffd200"></circle></svg>