<?xml version="1.0" encoding="utf-8"?>
<svg viewBox="0 0 500 500" xmlns="http://www.w3.org/2000/svg">
  <defs>
    <linearGradient gradientUnits="userSpaceOnUse" x1="252.542" y1="24.625" x2="252.542" y2="500.375" id="gradient-1">
      <stop offset="0" style="stop-color: rgba(120, 27, 226, 1)"/>
      <stop offset="1" style="stop-color: rgba(72, 16, 135, 1)"/>
    </linearGradient>
    <linearGradient gradientUnits="userSpaceOnUse" x1="185.38" y1="311.004" x2="185.38" y2="363.154" id="gradient-0">
      <stop offset="0" style="stop-color: rgba(110, 27, 226, 1)"/>
      <stop offset="1" style="stop-color: rgba(66, 16, 135, 1)"/>
    </linearGradient>
    <linearGradient gradientUnits="userSpaceOnUse" x1="316.502" y1="311.004" x2="316.502" y2="363.154" id="gradient-2">
      <stop offset="0" style="stop-color: rgba(110, 27, 226, 1)"/>
      <stop offset="1" style="stop-color: rgba(66, 16, 135, 1)"/>
    </linearGradient>
  </defs>
  <polygon style="fill: rgb(255, 255, 255);" points="65.266 393.651 65.266 131.349 250.944 33.055 436.623 131.349 436.623 393.651 250.944 491.945"/>
  <path style="stroke: rgb(45, 55, 154); fill: url(#gradient-1);" d="M 250.944 41.484 L 429.121 135.809 L 429.121 389.206 L 250.944 483.516 L 72.768 389.198 L 72.768 135.802 L 250.944 41.484 M 250.944 24.625 L 57.764 126.889 L 57.764 398.111 L 250.944 500.375 L 444.125 398.111 L 444.125 126.889 C 474.092 141.873 284.273 41.29 250.944 24.625 Z"/>
  <circle style="fill: rgb(201, 201, 201);" cx="195.088" cy="264.92" r="30.6" transform="matrix(0.937771, 0, 0, 0.929199, 2.435065, 25.554199)"/>
  <path style="fill: url(#gradient-0);" d="M 234.875 363.143 C 234.875 363.143 234.875 364.467 234.875 337.981 C 234.875 311.495 205.691 311.004 205.691 311.004 L 165.067 311.004 C 165.067 311.004 135.884 311.331 135.884 337.981 C 135.884 364.474 135.884 363.143 135.884 363.143 L 234.875 363.143 Z"/>
  <circle style="fill: rgb(201, 201, 201);" cx="334.912" cy="264.92" r="30.6" transform="matrix(0.937771, 0, 0, 0.929199, 2.435065, 25.554199)"/>
  <path style="fill: url(#gradient-2);" d="M 365.997 363.143 C 365.997 363.143 365.997 364.467 365.997 337.981 C 365.997 311.495 336.814 311.004 336.814 311.004 L 296.19 311.004 C 296.19 311.004 267.006 311.331 267.006 337.981 C 267.006 364.474 267.006 363.143 267.006 363.143 L 365.997 363.143 Z"/>
  <circle style="fill: rgb(201, 201, 201);" cx="265" cy="119.72" r="30.6" transform="matrix(0.937771, 0, 0, 0.929199, 2.435065, 25.554199)"/>
  <path style="fill: rgb(110, 27, 226);" d="M 300.436 228.253 C 300.436 228.253 300.436 229.577 300.436 203.091 C 300.436 176.597 271.253 176.114 271.253 176.114 L 230.628 176.114 C 230.628 176.114 201.445 176.441 201.445 203.091 C 201.445 229.584 201.445 228.253 201.445 228.253 L 300.436 228.253 Z"/>
  <g transform="matrix(0.937771, 0, 0, 0.929199, 10.874998, 24.624996)" style=""/>
  <g transform="matrix(0.937771, 0, 0, 0.929199, 10.874998, 24.624996)" style=""/>
  <g transform="matrix(0.937771, 0, 0, 0.929199, 10.874998, 24.624996)" style=""/>
  <g transform="matrix(0.937771, 0, 0, 0.929199, 10.874998, 24.624996)" style=""/>
  <g transform="matrix(0.937771, 0, 0, 0.929199, 10.874998, 24.624996)" style=""/>
  <g transform="matrix(0.937771, 0, 0, 0.929199, 10.874998, 24.624996)" style=""/>
  <g transform="matrix(0.937771, 0, 0, 0.929199, 10.874998, 24.624996)" style=""/>
  <g transform="matrix(0.937771, 0, 0, 0.929199, 10.874998, 24.624996)" style=""/>
  <g transform="matrix(0.937771, 0, 0, 0.929199, 10.874998, 24.624996)" style=""/>
  <g transform="matrix(0.937771, 0, 0, 0.929199, 10.874998, 24.624996)" style=""/>
  <g transform="matrix(0.937771, 0, 0, 0.929199, 10.874998, 24.624996)" style=""/>
  <g transform="matrix(0.937771, 0, 0, 0.929199, 10.874998, 24.624996)" style=""/>
  <g transform="matrix(0.937771, 0, 0, 0.929199, 10.874998, 24.624996)" style=""/>
  <g transform="matrix(0.937771, 0, 0, 0.929199, 10.874998, 24.624996)" style=""/>
  <g transform="matrix(0.937771, 0, 0, 0.929199, 10.874998, 24.624996)" style=""/>
</svg>